# xmcd
# 
# Track frame offsets:
#     150
#     15469
#     32296
#     47676
#     62150
#     80482
#     100397
#     118366
#     135401
#     153355
#     174687
# 
# Disc length: 2626
# 
# Revision: 1
# Processed by: cddbd v1.5.2PL0 Copyright (c) Steve Scherf et al.
# Submitted via: BonkEnc v1.0.8
# 
DISCID=880a400b
DTITLE=SHeDAISY - The Whole SHeBANG
DYEAR=1999
DGENRE=Country
TTITLE0=Little Good-Byes
TTITLE1=I Will...But
TTITLE2=This Woman Needs
TTITLE3=Before Me And You
TTITLE4=Lucky 4 You (Tonight I'm Just Me)
TTITLE5=Still Holding Out For You
TTITLE6=Punishment
TTITLE7='Cause I Like It That Way
TTITLE8=Without Your Love
TTITLE9=A Night To Remember
TTITLE10=Dancing With Angels
EXTD=YEAR: 1999
EXTT0=
EXTT1=
EXTT2=
EXTT3=
EXTT4=
EXTT5=
EXTT6=
EXTT7=
EXTT8=
EXTT9=
EXTT10=
PLAYORDER=
